<svg width="24" height="1" viewBox="0 0 24 1" fill="none" xmlns="http://www.w3.org/2000/svg">
<path id="Vector" d="M13.8502 0.5L22.6749 0.11C22.9766 0.0988889 23.1274 0.0844444 23.1274 0.0666667C23.1274 0.0488889 22.9891 0.0333333 22.7126 0.02C22.436 0.00666666 22.0966 0 21.6943 0C21.2921 0 20.9401 0.00666666 20.6384 0.02L11.8137 0.41L2.98902 0.02C2.68732 0.00666666 2.33533 0 1.93307 0C1.5308 0 1.19139 0.00666666 0.914836 0.02C0.638279 0.0333333 0.5 0.0488889 0.5 0.0666667C0.5 0.0844444 0.650849 0.0988889 0.952548 0.11L9.77724 0.5L0.952548 0.89C0.650849 0.903333 0.5 0.918889 0.5 0.936667C0.5 0.954444 0.638279 0.969444 0.914836 0.981667C1.19139 0.993889 1.5308 1 1.93307 1C2.33533 1 2.68732 0.994444 2.98902 0.983333L11.8137 0.593333L20.6384 0.983333C20.9401 0.994444 21.2921 1 21.6943 1C22.0966 1 22.436 0.993889 22.7126 0.981667C22.9891 0.969444 23.1274 0.954444 23.1274 0.936667C23.1274 0.918889 22.9766 0.903333 22.6749 0.89L13.8502 0.5Z" fill="#741FF5"/>
</svg>
