<svg width="142" height="25" viewBox="0 0 142 25" fill="none" xmlns="http://www.w3.org/2000/svg">
<path d="M0.1045 25V1.96H5.0005L18.4725 18.024V1.96H23.1445V25H18.2485L4.7125 8.872V25H0.1045ZM26.7935 25V1.96H48.0415V6.6H31.4655V11.144H44.8095V15.816H31.4655V25H26.7935ZM58.231 25V6.6H49.015V1.96H72.055V6.6H62.871V25H58.231ZM74.4803 25V1.96H79.0883V11.144H93.3923V1.96H98.0003V25H93.3923V15.816H79.0883V25H74.4803ZM106.083 25C105.272 25 104.515 24.7973 103.811 24.392C103.128 23.9653 102.584 23.4107 102.179 22.728C101.774 22.0453 101.571 21.2987 101.571 20.488V6.44H106.115V20.264C106.115 20.3067 106.136 20.3493 106.179 20.392C106.222 20.4347 106.264 20.456 106.307 20.456H115.651C115.694 20.456 115.736 20.4347 115.779 20.392C115.822 20.3493 115.843 20.3067 115.843 20.264V6.44H120.387V20.488C120.387 21.2987 120.184 22.0453 119.779 22.728C119.374 23.4107 118.83 23.9653 118.147 24.392C117.464 24.7973 116.707 25 115.875 25H106.083ZM123.072 25V0.359999H127.616V6.44H137.376C138.208 6.44 138.965 6.65333 139.648 7.08C140.33 7.48533 140.874 8.02933 141.28 8.712C141.685 9.39467 141.888 10.1413 141.888 10.952V20.488C141.888 21.2987 141.685 22.0453 141.28 22.728C140.874 23.4107 140.33 23.9653 139.648 24.392C138.965 24.7973 138.208 25 137.376 25H123.072ZM127.808 20.456H137.152C137.216 20.456 137.258 20.4347 137.28 20.392C137.322 20.3493 137.344 20.3067 137.344 20.264V11.176C137.344 11.1333 137.322 11.0907 137.28 11.048C137.258 11.0053 137.216 10.984 137.152 10.984H127.808C127.765 10.984 127.722 11.0053 127.68 11.048C127.637 11.0907 127.616 11.1333 127.616 11.176V20.264C127.616 20.3067 127.637 20.3493 127.68 20.392C127.722 20.4347 127.765 20.456 127.808 20.456Z" fill="url(#paint0_linear_1_1414)"/>
<defs>
<linearGradient id="paint0_linear_1_1414" x1="-2" y1="33" x2="36.5783" y2="-54.1235" gradientUnits="userSpaceOnUse">
<stop stop-color="#2600FC"/>
<stop offset="1" stop-color="#FF00EA"/>
</linearGradient>
</defs>
</svg>
